<svg width="155" height="36" viewBox="0 0 155 36" fill="none" xmlns="http://www.w3.org/2000/svg">
<path d="M9.9641 6.41507C11.6307 6.40998 13.2448 6.99709 14.5186 8.07171C15.7925 9.14632 16.6431 10.6385 16.9189 12.2821C17.1946 13.9257 16.8775 15.6138 16.0241 17.0453C15.1706 18.4767 13.8364 19.5585 12.2593 20.0975L14.2645 23.752C14.8465 24.8176 16.1409 25.1751 17.2402 24.593L19.5691 28.8631C16.1409 30.7068 11.8708 29.4772 9.99518 26.0809L6.95477 20.4853H4.8521V29.2222H0V6.41507H9.9641ZM4.85375 11.2696V15.6365H9.9641C11.1937 15.6365 12.1635 14.6987 12.1635 13.4699C12.166 13.1803 12.1108 12.8931 12.0012 12.6251C11.8916 12.3571 11.7296 12.1136 11.5249 11.9087C11.3202 11.7039 11.0768 11.542 10.8088 11.4322C10.5408 11.3225 10.2536 11.2672 9.9641 11.2696H4.85375Z" fill="white"/>
<path d="M43.3359 6.41553H58.8613V11.2701H48.1881V15.1516H58.3768V20.0037H48.1873V24.3705H59.3457V29.2227H43.3359V6.41553Z" fill="white"/>
<path d="M29.7963 26.7445C34.6285 26.7445 38.5458 22.8272 38.5458 17.995C38.5458 13.1629 34.6285 9.24561 29.7963 9.24561C24.9641 9.24561 21.0469 13.1629 21.0469 17.995C21.0469 22.8272 24.9641 26.7445 29.7963 26.7445Z" stroke="white" stroke-width="5.64646"/>
<path d="M29.7957 22.9546C32.5348 22.9546 34.7554 20.7341 34.7554 17.9949C34.7554 15.2557 32.5348 13.0352 29.7957 13.0352C27.0565 13.0352 24.8359 15.2557 24.8359 17.9949C24.8359 20.7341 27.0565 22.9546 29.7957 22.9546Z" fill="#3469FA"/>
<path d="M65.4598 29.2811C65.1419 29.2811 64.8742 29.1808 64.6566 28.98C64.4559 28.7625 64.3555 28.4948 64.3555 28.1769C64.3555 27.859 64.4559 27.5913 64.6566 27.3738C64.8742 27.1563 65.1419 27.0476 65.4598 27.0476C65.7777 27.0476 66.0454 27.1563 66.2628 27.3738C66.4804 27.5913 66.5891 27.859 66.5891 28.1769C66.5891 28.4948 66.4804 28.7625 66.2628 28.98C66.0454 29.1808 65.7777 29.2811 65.4598 29.2811ZM70.4904 18.7406H68.6082V17.2349H70.4904V14.6248C70.4904 13.3365 70.9003 12.3494 71.7201 11.6634C72.5399 10.9607 73.5689 10.6094 74.807 10.6094C75.4428 10.6094 76.0367 10.693 76.5888 10.8603V12.4163C76.1873 12.249 75.7105 12.1654 75.1583 12.1654C74.2716 12.1654 73.594 12.3912 73.1255 12.843C72.657 13.278 72.4228 13.9054 72.4228 14.7252V17.2349H80.253V29.2811H78.3202V18.7406H72.4228V29.2811H70.4904V18.7406ZM79.2742 14.6248C78.9394 14.6248 78.655 14.5077 78.4209 14.2734C78.1869 14.0392 78.0699 13.7548 78.0699 13.4202C78.0699 13.0856 78.1869 12.8011 78.4209 12.5669C78.655 12.3327 78.9394 12.2156 79.2742 12.2156C79.609 12.2156 79.8934 12.3327 80.1275 12.5669C80.3786 12.8011 80.5041 13.0856 80.5041 13.4202C80.5041 13.7548 80.3786 14.0392 80.1275 14.2734C79.8934 14.5077 79.609 14.6248 79.2742 14.6248ZM84.0226 17.2349H85.9051V19.0418C86.491 18.2889 87.2017 17.7367 88.0387 17.3854C88.892 17.0341 89.7948 16.8584 90.7489 16.8584C92.3384 16.8584 93.5179 17.2767 94.2875 18.1132C95.0734 18.9498 95.4671 20.0707 95.4671 21.4761V29.2811H93.5342V21.6518C93.5342 20.6145 93.2831 19.8198 92.7817 19.2677C92.2795 18.6988 91.4766 18.4144 90.3722 18.4144C88.5153 18.4144 87.0428 19.2509 85.9555 20.924V29.2811H84.0226V17.2349ZM102.699 29.6576C101.243 29.6576 100.089 29.2979 99.2359 28.5785C98.3989 27.8423 97.9812 26.8384 97.9812 25.5669C97.9812 24.2451 98.3904 23.2329 99.2103 22.5302C100.03 21.8108 101.218 21.451 102.775 21.451C104.514 21.451 106.012 21.8108 107.266 22.5302V21.6267C107.266 20.5392 106.957 19.7361 106.338 19.2175C105.719 18.6821 104.74 18.4144 103.402 18.4144C101.979 18.4144 100.667 18.6821 99.4614 19.2175V17.5862C99.9636 17.3687 100.599 17.193 101.369 17.0592C102.138 16.9253 102.875 16.8584 103.577 16.8584C105.485 16.8584 106.898 17.2934 107.819 18.1634C108.739 19.0167 109.199 20.2046 109.199 21.7271V29.2811H107.392V27.7252C106.338 29.0135 104.773 29.6576 102.699 29.6576ZM103.176 28.0765C104.08 28.0765 104.891 27.9009 105.61 27.5495C106.347 27.1814 106.898 26.6711 107.266 26.0186V24.0862C106.614 23.7014 105.961 23.4253 105.309 23.258C104.673 23.0739 103.954 22.9819 103.15 22.9819C102.013 22.9819 101.185 23.1994 100.667 23.6344C100.164 24.0527 99.9132 24.6969 99.9132 25.5669C99.9132 27.24 101.001 28.0765 103.176 28.0765ZM112.575 17.2349H114.457V19.0418C115.043 18.2889 115.754 17.7367 116.59 17.3854C117.444 17.0341 118.347 16.8584 119.301 16.8584C120.89 16.8584 122.07 17.2767 122.839 18.1132C123.626 18.9498 124.019 20.0707 124.019 21.4761V29.2811H122.087V21.6518C122.087 20.6145 121.836 19.8198 121.333 19.2677C120.832 18.6988 120.028 18.4144 118.925 18.4144C117.067 18.4144 115.595 19.2509 114.507 20.924V29.2811H112.575V17.2349ZM133.551 29.6576C132.28 29.6576 131.133 29.4066 130.113 28.9047C129.109 28.386 128.322 27.6498 127.754 26.6962C127.185 25.7258 126.9 24.5881 126.9 23.2831C126.9 21.9948 127.185 20.8655 127.754 19.895C128.339 18.9079 129.142 18.155 130.163 17.6364C131.184 17.1178 132.338 16.8584 133.627 16.8584C134.546 16.8584 135.358 16.9421 136.061 17.1094C136.764 17.2767 137.391 17.5444 137.943 17.9124V19.5437C136.889 18.7908 135.509 18.4144 133.802 18.4144C132.33 18.4144 131.133 18.841 130.213 19.6943C129.293 20.5476 128.833 21.7438 128.833 23.2831C128.833 24.8223 129.293 26.0186 130.213 26.8719C131.133 27.7084 132.304 28.1267 133.726 28.1267C134.614 28.1267 135.408 28.0263 136.111 27.8255C136.813 27.6247 137.483 27.3153 138.118 26.897V28.5282C137.533 28.9298 136.872 29.2142 136.136 29.3815C135.417 29.5656 134.555 29.6576 133.551 29.6576ZM147.602 29.6576C145.41 29.6576 143.695 29.0971 142.458 27.9761C141.236 26.8552 140.626 25.2908 140.626 23.2831C140.626 21.3088 141.177 19.7445 142.282 18.59C143.386 17.4356 144.959 16.8584 147 16.8584C148.372 16.8584 149.534 17.1261 150.488 17.6615C151.441 18.1801 152.161 18.8996 152.647 19.8198C153.132 20.7399 153.374 21.7857 153.374 22.9568V24.0109H142.432C142.499 25.3828 143.001 26.4118 143.938 27.0977C144.892 27.7837 146.18 28.1267 147.803 28.1267C148.589 28.1267 149.359 28.0597 150.112 27.9259C150.881 27.7753 151.567 27.5746 152.17 27.3237V28.9549C151.668 29.1557 150.982 29.323 150.112 29.4568C149.258 29.5907 148.422 29.6576 147.602 29.6576ZM151.567 22.6306C151.534 21.3255 151.132 20.2967 150.363 19.5437C149.593 18.7908 148.464 18.4144 146.974 18.4144C145.519 18.4144 144.407 18.8076 143.636 19.5939C142.867 20.3635 142.465 21.3758 142.432 22.6306H151.567Z" fill="white"/>
</svg>
