<svg width="122" height="100" viewBox="0 0 122 100" fill="none" xmlns="http://www.w3.org/2000/svg">
<g clip-path="url(#clip0_2358_160280)">
<path d="M108.799 25.1422C108.873 26.2059 108.873 27.2696 108.873 28.3431C108.873 61.0539 83.9706 98.7794 38.4363 98.7794V98.7598C24.9853 98.7794 11.8137 94.9265 0.490173 87.6618C2.44606 87.8971 4.41174 88.0147 6.38233 88.0196C17.5294 88.0294 28.3578 84.2892 37.1274 77.402C26.5343 77.201 17.2451 70.2941 14 60.2108C17.7108 60.9265 21.5343 60.7794 25.1764 59.7843C13.6274 57.451 5.3186 47.3039 5.3186 35.5196C5.3186 35.4118 5.3186 35.3088 5.3186 35.2059C8.75978 37.1225 12.6127 38.1863 16.5539 38.3039C5.67645 31.0343 2.32351 16.5637 8.89213 5.25C21.4608 20.7157 40.0049 30.1176 59.9117 31.1127C57.9166 22.5147 60.6421 13.5049 67.0735 7.46079C77.0441 -1.91176 92.7255 -1.43137 102.098 8.53431C107.642 7.44118 112.956 5.40686 117.819 2.52451C115.971 8.2549 112.103 13.1226 106.936 16.2157C111.843 15.6373 116.637 14.3235 121.152 12.3186C117.828 17.299 113.642 21.6373 108.799 25.1422Z" fill="white"/>
</g>
<defs>
<clipPath id="clip0_2358_160280">
<rect width="121.569" height="100" fill="white"/>
</clipPath>
</defs>
</svg>
